<svg width="512" height="512" viewBox="68 67 164 196" fill="none" xmlns="http://www.w3.org/2000/svg">
  <path d="M78 161C78 157.686 80.686 155 84 155H139C142.314 155 145 157.686 145 161V217C145 220.314 142.314 223 139 223H120C96.804 223 78 204.196 78 181V161Z" fill="#1A1A1A"/>
  <path d="M155 83C155 79.686 157.686 77 161 77H180C203.196 77 222 95.804 222 119V139C222 142.314 219.314 145 216 145H161C157.686 145 155 142.314 155 139V83Z" fill="#1A1A1A"/>
  <path d="M155 197C155 173.804 173.804 155 197 155L216 155C219.314 155 222 157.686 222 161L222 247C222 250.314 219.314 253 216 253L161 253C157.686 253 155 250.314 155 247L155 197Z" fill="#BDF300"/>
  <path d="M78 119C78 95.804 96.804 77 120 77H139C142.314 77 145 79.686 145 83V139C145 142.314 142.314 145 139 145H84C80.686 145 78 142.314 78 139V119Z" fill="#1A1A1A"/>
</svg>
